<svg xmlns="http://www.w3.org/2000/svg" width="15" height="13" viewBox="0 0 15 13"><g><g><path fill="#fff" d="M2.005 10.196C.733 9.091 0 7.63 0 6.064 0 2.678 3.386 0 7.5 0S15 2.678 15 6.064s-3.386 6.064-7.5 6.064c-1.05 0-2.07-.174-3.009-.506a4.343 4.343 0 0 1-2.617.813l-1.29-.025.804-1.01c.284-.357.493-.767.617-1.204zm4.916-2.75V7.14c0-.265.056-.495.17-.691.113-.196.32-.404.62-.625.29-.207.48-.375.573-.505a.731.731 0 0 0 .139-.434.47.47 0 0 0-.199-.41c-.132-.094-.317-.14-.554-.14-.414 0-.886.134-1.415.405l-.451-.906a3.942 3.942 0 0 1 1.957-.518c.568 0 1.02.137 1.355.41.335.273.503.637.503 1.092 0 .304-.07.566-.207.787-.138.22-.4.468-.786.744-.265.196-.433.345-.503.447a.694.694 0 0 0-.106.402v.248zm-.133 1.41c0-.23.062-.404.187-.522.124-.118.304-.176.542-.176.229 0 .406.06.531.18.126.12.189.293.189.518 0 .216-.064.387-.19.512-.128.124-.304.186-.53.186-.232 0-.411-.06-.538-.182-.127-.122-.19-.294-.19-.516zm-3.686.581l.304.234-.065.379c-.05.298-.177.688-.335.914.112.02.676-.318.955-.559l.295-.255.36.146c.881.356 1.862.545 2.879.545 3.463 0 6.218-2.178 6.218-4.782s-2.755-4.782-6.218-4.782-6.218 2.178-6.218 4.782c0 1.274.657 2.48 1.825 3.378z"/></g></g></svg>