<svg xmlns="http://www.w3.org/2000/svg" width="23" height="49" viewBox="0 0 23 49"><g><g><path fill="#ff7a00" d="M12.85 33.264c.552.199 1.05.514 1.463.92.883-1.186 2.277-1.956 3.85-1.956 2.671 0 4.837 2.21 4.837 4.936S20.834 42.1 18.163 42.1a4.744 4.744 0 0 1-2.67-.822 4.98 4.98 0 0 1 .845 2.786c0 2.726-2.166 4.936-4.837 4.936H11.5c-2.672 0-4.838-2.21-4.838-4.936a4.98 4.98 0 0 1 .845-2.786 4.743 4.743 0 0 1-2.67.822C2.166 42.1 0 39.89 0 37.164s2.166-4.936 4.837-4.936c1.574 0 2.967.77 3.851 1.957.413-.406.91-.72 1.461-.92V0h8.982v2.027h-2.004v4.506h2.005V8.56H12.85zm.025-26.734l1.798.003V2.03h-1.798zM11.5 46.64c1.391 0 2.522-1.155 2.522-2.575 0-1.42-1.13-2.574-2.522-2.575-1.39 0-2.522 1.156-2.522 2.575 0 1.42 1.131 2.574 2.522 2.575zm4.14-9.475c0 1.42 1.132 2.574 2.523 2.574 1.391 0 2.523-1.154 2.523-2.574s-1.132-2.575-2.523-2.575c-1.391 0-2.523 1.156-2.523 2.575zm-8.28 0c0-1.42-1.132-2.575-2.523-2.575-1.391 0-2.523 1.156-2.523 2.575 0 1.42 1.132 2.574 2.523 2.574 1.391 0 2.523-1.154 2.523-2.574z"/></g></g></svg>