<svg xmlns="http://www.w3.org/2000/svg" width="43" height="20" viewBox="0 0 43 20"><g><g><path fill="#ff7a00" d="M33.455 0C38.717 0 43 4.486 43 10.002 43 15.514 38.717 20 33.455 20c-2.942 0-6.146-1.512-9.523-4.497a33.085 33.085 0 0 1-2.42-2.377C19.115 15.739 14.451 20 9.544 20 4.283 20 0 15.514 0 10.002 0 4.486 4.283 0 9.545 0c2.942 0 6.146 1.512 9.524 4.497.945.839 1.77 1.67 2.423 2.377.038.037.071.077.104.114a29.028 29.028 0 0 1 1.522 1.785l.16.21.86 1.019c2.103 2.355 6.017 5.95 9.317 5.95 3.023 0 5.48-2.668 5.48-5.95 0-3.283-2.457-5.954-5.48-5.954-2.642 0-5.676 2.307-7.86 4.434l-2.672-3.076C25.503 2.918 29.393 0 33.455 0M9.54 15.952c3.298 0 7.21-3.595 9.31-5.95-2.1-2.355-6.012-5.954-9.31-5.954-3.017 0-5.476 2.671-5.476 5.954 0 3.282 2.46 5.95 5.476 5.95"/></g></g></svg>