<svg xmlns="http://www.w3.org/2000/svg" width="120" height="85" viewBox="0 0 120 85"><g><g><path fill="#fff" d="M87.265 39.45c-2.564-5.792-1.158-12.466 3.562-16.904 4.72-4.438 11.822-5.766 17.991-3.364 6.17 2.402 10.189 8.061 10.182 14.335 0 6.551-4.332 12.153-10.453 14.414l.453-.46a18.876 18.876 0 0 1-10.266 1.12c-5.09-1.12-9.404-4.474-11.47-9.14zm21.282 8.481L74.063 83l-.644-.596L54 64.55v-.08L84.391 34c.489 5.23 3.677 9.919 8.56 12.592 1.809.99 3.769 1.658 5.783 2 1.229.27 2.503.41 3.801.408 2.122-.002 4.15-.38 6.012-1.069zM53.417 64L20 33h64zM84 33H20L52.832 2zm8.24-16.648c-6.96 0-12.076 2.612-14.982 7.289L53.611 0H35.723L0 32.542 56.778 84.92h17.73V85l40.353-40.75c2.723-2.567 4.49-5.872 5.046-9.434v-.339c0-.483.087-.983.087-1.5a1.494 1.494 0 0 0 0-.274c0-9.024-7.89-16.342-17.627-16.351z"/></g></g></svg>