<svg xmlns="http://www.w3.org/2000/svg" width="15" height="16" viewBox="0 0 15 16"><g><g><path fill="#fff" d="M-.126 15.77h15.252l-.166-.905a6.688 6.688 0 0 0-.178-.7 7.956 7.956 0 0 0-.623-1.496 5.352 5.352 0 0 0-1.024-1.353c-.893-.835-1.975-1.397-2.995-1.713a7.62 7.62 0 0 0-.678-.177v-.162c1.338-.86 2.172-2.486 2.172-4.316C11.634 2.205 9.912 0 7.5 0 5.084 0 3.366 2.193 3.366 4.948c0 1.83.834 3.455 2.172 4.316v.162c-1.2.254-2.579.867-3.673 1.89-.4.374-.74.832-1.024 1.353-.263.48-.468.989-.623 1.497-.093.306-.15.55-.178.7z"/></g></g></svg>