<?xml version="1.0" encoding="UTF-8"?>
<svg width="41px" height="32px" viewBox="0 0 41 32" version="1.1" xmlns="http://www.w3.org/2000/svg" xmlns:xlink="http://www.w3.org/1999/xlink">
    <!-- Generator: sketchtool 51.3 (57544) - http://www.bohemiancoding.com/sketch -->
    <title>12F26C89-97B0-40BB-A42A-4482BDA63783</title>
    <desc>Created with sketchtool.</desc>
    <defs>
        <polygon id="path-1" points="0.0282694442 0.0272432432 12.7709903 0.0272432432 12.7709903 31.9999135 0.0282694442 31.9999135"></polygon>
        <polygon id="path-3" points="0 0.155055981 13.7280343 0.155055981 13.7280343 16.8519341 0 16.8519341"></polygon>
    </defs>
    <g id="Page-1" stroke="none" stroke-width="1" fill="none" fill-rule="evenodd">
        <g id="Kits_main_admin" transform="translate(-320.000000, -33.000000)">
            <g id="Group-9" transform="translate(320.000000, 33.000000)">
                <g id="Group-3" transform="translate(14.000000, 0.000000)">
                    <mask id="mask-2" fill="white">
                        <use xlink:href="#path-1"></use>
                    </mask>
                    <g id="Clip-2"></g>
                    <path d="M2.27123448,31.9999135 C2.06592414,31.9999135 1.85702759,31.9726703 1.64947586,31.9147243 C0.4602,31.5843459 -0.226110345,30.3860757 0.116372414,29.2384 L8.37495862,1.59126486 C8.71788966,0.443589189 9.96006207,-0.218464865 11.1493379,0.112345946 C12.3390621,0.442724324 13.0253724,1.64099459 12.6828897,2.78867027 L4.42430345,30.4358054 C4.1409931,31.3832649 3.24488966,31.9999135 2.27123448,31.9999135" id="Fill-1" fill="#FFFFFF" mask="url(#mask-2)"></path>
                </g>
                <g id="Group-6" transform="translate(0.000000, 7.000000)">
                    <mask id="mask-4" fill="white">
                        <use xlink:href="#path-3"></use>
                    </mask>
                    <g id="Clip-5"></g>
                    <path d="M11.6046,16.8519341 C11.1952061,16.8519341 10.7819939,16.7362512 10.4175697,16.4953488 L0.932357576,10.2202756 C0.349448485,9.83466585 -0.000127272727,9.19115366 -0.000127272727,8.50327561 C-0.000127272727,7.81539756 0.349448485,7.1723 0.932357576,6.78669024 L10.4175697,0.511617073 C11.3873879,-0.130236585 12.7063576,0.118129268 13.3635091,1.06639756 C14.0198121,2.01425122 13.7656909,3.30334878 12.7958727,3.94520244 L5.90532727,8.50327561 L12.7958727,13.0617634 C13.7656909,13.7036171 14.0198121,14.9923 13.3635091,15.9405683 C12.9532667,16.5326659 12.2850848,16.8519341 11.6046,16.8519341" id="Fill-4" fill="#FFFFFF" mask="url(#mask-4)"></path>
                </g>
                <path d="M29.1652124,25 C28.4712371,25 27.7902415,24.674932 27.3718661,24.0720787 C26.7025521,23.1070068 26.9612785,21.7944921 27.9507557,21.1409789 L34.9779042,16.500106 L27.9507557,11.8588109 C26.9612785,11.2052977 26.7025521,9.89320517 27.3718661,8.9277111 C28.0416128,7.96221703 29.3871633,7.70976165 30.3762079,8.36285274 L40.0494616,14.7519158 C40.6439267,15.1445304 41,15.7997323 41,16.500106 C41,17.2004797 40.6439267,17.8552595 40.0494616,18.247874 L30.3762079,24.6369371 C30.0041264,24.8826378 29.5827225,25 29.1652124,25" id="Fill-7" fill="#FFFFFF"></path>
            </g>
        </g>
    </g>
</svg>