<?xml version="1.0" encoding="UTF-8"?>
<svg width="43px" height="20px" viewBox="0 0 43 20" version="1.1" xmlns="http://www.w3.org/2000/svg" xmlns:xlink="http://www.w3.org/1999/xlink">
    <!-- Generator: sketchtool 51.3 (57544) - http://www.bohemiancoding.com/sketch -->
    <title>8022D6FA-E78E-49D3-B7C9-ECB7E7C4FED4</title>
    <desc>Created with sketchtool.</desc>
    <defs></defs>
    <g id="Page-1" stroke="none" stroke-width="1" fill="none" fill-rule="evenodd">
        <g id="Kits_main_admin" transform="translate(-183.000000, -41.000000)" fill="#FFFFFF">
            <g id="Group-5" transform="translate(183.000000, 41.000000)">
                <path d="M21.011,7 C21.011,7.01 21,7.01 21,7.02 C21.101,7.12 21.191,7.23 21.281,7.33 L21.011,7 Z" id="Fill-1"></path>
                <path d="M9.54500296,15.9521619 C6.52581236,15.9521619 4.06500572,13.2842686 4.06500572,10.0018399 C4.06500572,6.71941122 6.52581236,4.04783809 9.54500296,4.04783809 C12.8454181,4.04783809 16.7589099,7.64673413 18.8616265,10.0018399 C16.7589099,12.3569457 12.8454181,15.9521619 9.54500296,15.9521619 M33.4546275,0 C29.3936868,0 25.5023677,2.91812328 22.9225672,5.40570377 L25.5947542,8.48206072 C27.7787709,6.3551058 30.8127433,4.04783809 33.4546275,4.04783809 C36.4778831,4.04783809 38.9349943,6.71941122 38.9349943,10.0018399 C38.9349943,13.2842686 36.4778831,15.9521619 33.4546275,15.9521619 C30.1549515,15.9521619 26.2414596,12.3569457 24.1383735,10.0018399 L23.2773314,8.9825207 L23.1184266,8.77276909 C23.0818415,8.724931 22.5234576,8 21.5958972,6.98804048 C21.5630076,6.95124195 21.5297485,6.91076357 21.4924243,6.87396504 C20.8386975,6.1674333 20.0142404,5.33578657 19.0685723,4.49678013 C15.6909221,1.5124195 12.4869585,0 9.54500296,0 C4.28303784,0 0,4.48574057 0,10.0018399 C0,15.5142594 4.28303784,20 9.54500296,20 C14.4525735,20 19.1162437,15.7387305 21.5112712,13.126035 C22.1616721,13.8325667 22.98539,14.6678933 23.9317973,15.5032199 C27.3090779,18.4875805 30.5130415,20 33.4546275,20 C38.7169622,20 43,15.5142594 43,10.0018399 C43,4.48574057 38.7169622,0 33.4546275,0" id="Fill-3"></path>
            </g>
        </g>
    </g>
</svg>