<?xml version="1.0" encoding="UTF-8"?>
<svg width="36px" height="36px" viewBox="0 0 36 36" version="1.1" xmlns="http://www.w3.org/2000/svg" xmlns:xlink="http://www.w3.org/1999/xlink">
    <!-- Generator: sketchtool 51.3 (57544) - http://www.bohemiancoding.com/sketch -->
    <title>2199BB63-87B0-4627-931D-3C5F935FE979</title>
    <desc>Created with sketchtool.</desc>
    <defs></defs>
    <g id="Page-1" stroke="none" stroke-width="1" fill="none" fill-rule="evenodd">
        <g id="Kits_main_admin" transform="translate(-50.000000, -33.000000)" fill="#FFFFFF" fill-rule="nonzero">
            <path d="M71,51.119424 L69.2997812,52.7361717 C69.1203185,52.5244964 68.8875007,52.3573416 68.6219912,52.2495431 C68.3957455,52.1478007 68.1493304,52.0907519 67.8982495,52.081986 C67.7324522,52.0758411 67.5671928,52.1032065 67.4138403,52.1621995 C67.2969072,52.2040535 67.2204543,52.309395 67.2223742,52.4260128 C67.2219942,52.5405083 67.2984709,52.6430345 67.4138403,52.682696 C67.6136759,52.7659531 67.8189519,52.8373958 68.0284464,52.8965987 C68.3207513,52.9821597 68.6277352,53.0825752 68.9493982,53.1978449 C69.2655333,53.3085769 69.5648246,53.4571828 69.8397155,53.6399105 C70.1086874,53.8200526 70.3375688,54.0470612 70.5136761,54.3083563 C70.6993008,54.6073646 70.7908606,54.9489462 70.7778993,55.2940911 C70.7883529,55.7086641 70.6876718,56.1191275 70.4849562,56.488381 C70.2976616,56.8178653 70.0364728,57.1060136 69.7190919,57.3332966 C69.3971658,57.5607223 69.0330729,57.7311113 68.6449672,57.8359679 C68.2493084,57.9462278 67.838329,58.0014878 67.4253282,57.9999599 C66.7797819,58.0023631 66.1390292,57.8967022 65.5336433,57.6880185 C65.2462248,57.5901085 64.9677057,57.4708914 64.7007659,57.3315141 C64.4510888,57.1992766 64.2163203,57.0440111 64,56.8680583 L65.6657549,55.1817922 C65.8864232,55.3937348 66.1457292,55.5675501 66.4316193,55.6951586 C66.7351864,55.8416694 67.0719083,55.9186653 67.4138403,55.9197564 C67.5577219,55.9226587 67.7006311,55.897143 67.833151,55.8448905 C67.9232834,55.8066303 67.9899633,55.7324363 68.0145135,55.6430905 C68.0390637,55.5537447 68.0188442,55.4588548 67.9595186,55.3849998 C67.8970049,55.3199062 67.8215945,55.2666465 67.7374179,55.2281378 C67.5935798,55.1599734 67.4452105,55.1004347 67.2932166,55.0498856 C67.1017505,54.9857148 66.8700766,54.9108488 66.5867068,54.8235052 C66.3150626,54.7395081 66.0501724,54.6376478 65.7940372,54.5186939 C65.5481631,54.4052587 65.3211681,54.2593696 65.1200766,54.085541 C64.9224696,53.9108136 64.7642946,53.7011366 64.654814,53.4687883 C64.5329153,53.1956703 64.4742,52.9017043 64.4824945,52.6060475 C64.4682293,52.186919 64.5753664,51.7719385 64.7926696,51.4046275 C64.9918942,51.0836629 65.264463,50.8073895 65.5910832,50.5953624 C65.9243151,50.3818816 66.2968355,50.2272062 66.6900985,50.1390367 C67.0854989,50.0484067 67.4910459,50.0017355 67.8982495,50 C68.4581095,50.004117 69.0126119,50.1019298 69.5352845,50.2887686 C70.0778964,50.4740813 70.5757125,50.7576097 71,51.122989 L71,51.119424 Z M69,45 L67,45 L67,37 L69,37 L69,45 Z M58.8704567,40.664079 L62,45 L58.7250699,45 L56.6095061,41.8139261 L56.5945946,41.8139261 L56.5945946,45 L54,45 L54,37 L56.5740913,37 L56.5740913,39.9470713 L56.5945946,39.9470713 L58.7101584,37 L61.8434296,37 L58.8704567,40.664079 Z M54,50 L61,50 L61,52.2714655 L58.9212845,52.2714655 L58.9212845,58 L56.0807047,58 L56.0807047,52.2714655 L54,52.2714655 L54,50 Z M86,33 L50,33 L50,69 L86,69 L86,33 Z" id="Shape"></path>
        </g>
    </g>
</svg>