<svg xmlns="http://www.w3.org/2000/svg" width="44" height="34" viewBox="0 0 44 34">
    <path fill="#FFF" fill-rule="nonzero" d="M33.776 6.885c-2.563 0-4.418 1.032-5.483 2.877l-8.66-9.35h-6.551L0 13.277 20.794 33.97h6.493l.029.029L42.1 17.898a6.716 6.716 0 0 0 1.845-3.734l.02-.127c.022-.194.032-.394.035-.595v-.11a6.473 6.473 0 0 0-6.457-6.447h-3.767zm-3.117 6.227H7.38L19.322.884l11.337 12.228zm.12.472L19.642 25.656 7.48 13.594l23.299-.01zm-3.476 19.743l-.233-.236-7.104-7.079.029-.029 11.12-12.056a6.473 6.473 0 0 0 6.428 5.875 6.347 6.347 0 0 0 2.59-.547l-12.83 14.072zm10.24-13.982a6.013 6.013 0 1 1-.02-12.027 6.013 6.013 0 0 1 .02 12.027z"/>
</svg>
