<svg xmlns="http://www.w3.org/2000/svg" viewBox="0 0 200.95 203.02"><defs><style>.cls-1{fill:none;}.cls-2{fill:#5bffcd;}</style></defs><title>Health 3</title><g id="Layer_2" data-name="Layer 2"><g id="Capa_1" data-name="Capa 1"><path class="cls-1" d="M99.06,36.14V24.68a1.42,1.42,0,0,1,2.83,0V36.14a10.72,10.72,0,0,1,9.3,10.63h18.33a29.05,29.05,0,0,0-58.1,0H89.75A10.73,10.73,0,0,1,99.06,36.14Z"/><rect class="cls-1" x="11.31" y="158.17" width="178.32" height="13.75"/><rect class="cls-1" x="44.59" y="191.94" width="111.77" height="11.08"/><path class="cls-2" d="M71.5,57.24h57.94A9.6,9.6,0,0,0,139,47.67V16.81a9.6,9.6,0,0,0-9.58-9.57H71.5a9.61,9.61,0,0,0-9.58,9.57V47.67A9.6,9.6,0,0,0,71.5,57.24Zm29-39.52a29,29,0,0,1,29.05,29.05H111.19a10.72,10.72,0,0,0-9.3-10.63V24.68a1.42,1.42,0,0,0-2.83,0V36.14a10.73,10.73,0,0,0-9.31,10.63H71.42A29,29,0,0,1,100.47,17.72Z"/><path class="cls-2" d="M110.7,146.86V60.78h-7.07v86.08h-6.3V60.78H90.26v86.08H0v25.06c0,14.08,11,20,23.57,20V203h21V191.94H156.36V203h21V191.94c12.54,0,23.57-5.95,23.57-20V146.86Zm78.94,25.06H11.31V158.17H189.64Z"/><rect class="cls-2" x="90.27" y="56.83" width="7.06" height="8.08"/><rect class="cls-2" x="103.62" y="56.83" width="7.06" height="8.08"/><rect class="cls-2" x="93.8" width="13.44" height="13.44" rx="6.72"/></g></g></svg>