<svg xmlns="http://www.w3.org/2000/svg" viewBox="0 0 275.2 210.12"><defs><style>.cls-1{fill:#5bffcd;}.cls-2{fill:#fff;}</style></defs><title>Health 2</title><g id="Layer_2" data-name="Layer 2"><g id="Capa_1" data-name="Capa 1"><path class="cls-1" d="M274.76,35.13a6,6,0,0,0-4.67-3.68C246.22,27.89,232.07,16,230.85,15,219.75,3.69,209-1.25,198.9.31c-11.76,1.82-17.5,11.49-19,14.42-15.46,30.55-27.77,35.79-36.34,36.69V46.28a18.51,18.51,0,0,0,13.16-17.46c0-10.14-8.58-18.4-19.14-18.4s-19.15,8.26-19.15,18.4a18.51,18.51,0,0,0,13.16,17.46v5.11c-8.57-.89-20.92-6.11-36.37-36.69C93.75,11.77,88,2.1,76.29.28,66.17-1.28,55.44,3.66,44.34,15c-1.26,1.1-15.2,12.92-39.25,16.48A6,6,0,0,0,.43,35.13,6,6,0,0,0,1.23,41c1.17,1.5,28.93,37,83,52.62a70.62,70.62,0,0,0,9.63,2,15.38,15.38,0,0,0-.21,5c1.24,9.87,12,19.78,29.92,27.7-1.41.77-2.67,1.48-3.71,2.12-8.53,5.24-12.68,11.73-11.79,18.31.77,5.62,5,10.35,12.9,14.32a29.43,29.43,0,0,0-5,3.81,10.63,10.63,0,0,0-3.2,9.93c1.22,5.94,7.22,11.08,18.84,16.1v11.27a6,6,0,1,0,12,0V192.8a65.13,65.13,0,0,0,10.89-5.71,6.17,6.17,0,0,0,1-.57c7.05-5.27,7.62-10.5,6.88-14-1-4.52-4.83-7.92-9.28-10.4,1.27-.43,2.55-.85,3.86-1.27a14.16,14.16,0,0,0,5.68-3.47c3.77-3.77,5.27-8.4,4.22-13-1.48-6.57-8.19-12.21-15.22-16.45,4.61-2.12,8-3.61,8-3.65l.54-.27c13.61-7.81,21-16.42,21.42-24.92a14.93,14.93,0,0,0-.35-3.92A63,63,0,0,0,191,93.64C245,78.08,272.78,42.52,274,41A6,6,0,0,0,274.76,35.13Zm-169.25,64a3.82,3.82,0,0,1,1-3,12.86,12.86,0,0,0,2.36.22,19.83,19.83,0,0,0,10.71-3.59c4.4-2.93,7.3-6.85,8-10.74a9,9,0,0,0-1.59-7c-3.68-4.9-11.64-5-18.93-.15A18.47,18.47,0,0,0,99.49,84a53.68,53.68,0,0,1-12-1.93A162.27,162.27,0,0,1,67.34,74.8c5.56-2.32,12.31-5.39,16.78-8.32a3,3,0,0,0-3.26-5c-5.54,3.63-15.32,7.69-20.93,9.87-4.42-2.2-8.56-4.5-12.41-6.84,8.5-3.05,20.69-8.1,27.72-14a3,3,0,1,0-3.86-4.57c-7.6,6.4-22.64,12-30.29,14.51-3.87-2.61-7.37-5.19-10.51-7.69,10.34-3.93,28.07-11.54,37.63-20.55a3,3,0,0,0-4.1-4.34c-9.77,9.22-29.85,17.22-38.84,20.49-3.08-2.66-5.69-5.13-7.79-7.24,22-5.71,34.43-16.87,35-17.41l.24-.24c8.17-8.34,15.68-12.29,21.72-11.33,6.28,1,9.51,6.82,10.11,8,17.35,34.29,32.84,42,47.05,43.27V118.7C114.52,111.77,106.08,103.79,105.51,99.11Zm20.61,41.46c1.41-.86,3.32-1.91,5.5-3v17.09c-11.07-4.1-11.69-7.51-11.69-7.56C119.78,146.11,121.36,143.5,126.12,140.57Zm-1.23,34.28a34.77,34.77,0,0,1,6.73-4.12v8.89C127.32,177.36,125.56,175.68,124.89,174.85Zm18.7-3.92c3.31,1.33,6,2.82,6.85,3.95a8.57,8.57,0,0,1-1.65,1.65,5.39,5.39,0,0,0-.5.33,37.15,37.15,0,0,1-4.7,2.79ZM155.17,147c.06.24.18.78-1,2a2,2,0,0,1-.84.51c-2.8.89-6.16,2-9.72,3.28V137.13C149.73,140.57,154.56,144.32,155.17,147ZM250,48.35c-8.94-3.26-29.11-11.28-38.93-20.52A3,3,0,0,0,207,32.17c9.6,9,27.4,16.66,37.72,20.59-3.13,2.48-6.62,5.07-10.48,7.67-7.61-2.54-22.75-8.1-30.39-14.53A3,3,0,0,0,200,50.47c7.06,6,19.3,11,27.8,14.08-3.85,2.34-8,4.65-12.43,6.86-5.59-2.18-15.49-6.27-21.06-9.93a3,3,0,1,0-3.26,5c4.5,3,11.31,6.06,16.89,8.38a162.83,162.83,0,0,1-20,7.23,53.13,53.13,0,0,1-12.39,1.33,18.85,18.85,0,0,0-7.38-8.63c-7.33-4.81-15.29-4.75-18.94.15a9.06,9.06,0,0,0-1.58,7c.69,3.92,3.59,7.81,8,10.74a19.75,19.75,0,0,0,10.71,3.59,12.87,12.87,0,0,0,2.44-.23,3.41,3.41,0,0,1,.91,2.47c-.15,2.94-4.18,8.62-15.16,14.93-1.19.53-5.54,2.48-10.89,5V63.37c14.21-1.23,29.72-9,47-43.26.6-1.16,3.86-7,10.11-8,6.05-1,13.55,3,21.72,11.33a1.81,1.81,0,0,0,.24.24c.57.54,13,11.73,35.06,17.44C255.65,43.24,253.06,45.7,250,48.35Z"/><path class="cls-2" d="M151.65,25.38h0c-2.66-10-12.78-10.57-18-9.46a2.46,2.46,0,1,0,.86,4.85h0a16.25,16.25,0,0,1,5.75-.07,7.63,7.63,0,0,1,6.6,5.93h0a1.86,1.86,0,0,0,.1.31,2.46,2.46,0,0,0,4.64-1.57Z"/><path class="cls-2" d="M108.23,87.88s1.49-9.3,11.45-9C119.68,78.91,121.35,88.87,108.23,87.88Z"/><path class="cls-2" d="M167.18,87.88s-1.49-9.3-11.46-9C155.72,78.91,154.06,88.87,167.18,87.88Z"/></g></g></svg>