<svg xmlns="http://www.w3.org/2000/svg" viewBox="0 0 194.95 213.25"><defs><style>.cls-1{fill:#5bffcd;}</style></defs><title>Health 4</title><g id="Layer_2" data-name="Layer 2"><g id="Capa_1" data-name="Capa 1"><path class="cls-1" d="M4.87,213.25H190.08a4.87,4.87,0,0,0,4.87-4.87V91.4a4.87,4.87,0,0,0-4.87-4.87H165.71V42.66a4.87,4.87,0,0,0-4.87-4.87H136.47V32.92A14.62,14.62,0,0,0,121.85,18.3H73.11A14.61,14.61,0,0,0,58.49,32.92v4.87H34.12a4.88,4.88,0,0,0-4.88,4.87V86.53H4.87A4.87,4.87,0,0,0,0,91.4v117A4.87,4.87,0,0,0,4.87,213.25Zm160.84-117h19.5V203.5h-19.5ZM112.1,203.5H82.86V169.39H112.1ZM68.23,32.92A4.88,4.88,0,0,1,73.11,28h48.74a4.87,4.87,0,0,1,4.87,4.88V81.66a4.87,4.87,0,0,1-4.87,4.87H73.11a4.88,4.88,0,0,1-4.88-4.87ZM39,47.54h19.5V81.66A14.62,14.62,0,0,0,73.11,96.28h48.74a14.63,14.63,0,0,0,14.62-14.62V47.54H156v156H121.85v-39a4.88,4.88,0,0,0-4.88-4.87H78a4.87,4.87,0,0,0-4.87,4.87v39H39ZM9.75,96.28H29.24V203.5H9.75Z"/><path class="cls-1" d="M82.86,62.16H92.6v9.75a4.88,4.88,0,0,0,9.75,0V62.16h9.75a4.88,4.88,0,0,0,0-9.75h-9.75V42.66a4.88,4.88,0,0,0-9.75,0v9.75H82.86a4.88,4.88,0,1,0,0,9.75Z"/><path class="cls-1" d="M63.36,120.65h9.75a4.88,4.88,0,0,0,0-9.75H63.36a4.88,4.88,0,0,0,0,9.75Z"/><path class="cls-1" d="M78,140.14a4.87,4.87,0,0,0-4.87-4.87H63.36a4.88,4.88,0,0,0,0,9.75h9.75A4.88,4.88,0,0,0,78,140.14Z"/><path class="cls-1" d="M92.6,120.65h9.75a4.88,4.88,0,1,0,0-9.75H92.6a4.88,4.88,0,0,0,0,9.75Z"/><path class="cls-1" d="M92.6,145h9.75a4.88,4.88,0,1,0,0-9.75H92.6a4.88,4.88,0,0,0,0,9.75Z"/><path class="cls-1" d="M121.85,120.65h9.74a4.88,4.88,0,1,0,0-9.75h-9.74a4.88,4.88,0,1,0,0,9.75Z"/><path class="cls-1" d="M121.85,145h9.74a4.88,4.88,0,1,0,0-9.75h-9.74a4.88,4.88,0,1,0,0,9.75Z"/><rect class="cls-1" x="92.03" width="10.6" height="28.04" rx="5.3"/></g></g></svg>