<svg xmlns="http://www.w3.org/2000/svg" viewBox="0 0 243.87 187.42"><defs><style>.cls-1,.cls-2{fill:#5bffcd;}.cls-2{stroke:#5bffcd;stroke-miterlimit:10;stroke-width:4px;}</style></defs><title>Health 1</title><g id="Layer_2" data-name="Layer 2"><g id="Capa_1" data-name="Capa 1"><path class="cls-1" d="M124.61,187.42a5.39,5.39,0,0,1-3.78-1.54c-12.3-12-24.48-22.67-36.25-33l-.18-.16c-13.22-11.55-25.7-22.47-36.18-33.57C36.56,106.83,28.88,95.77,24,84.38A73.94,73.94,0,0,1,18,54.89a53.81,53.81,0,0,1,.4-6.49C21.69,20.81,45.61,0,74,0c25.1,0,37.21,9.71,48.39,28.88C135.18,8.5,151.06,0,175.23,0c28.42,0,52.36,20.81,55.69,48.4a55.93,55.93,0,0,1,.4,6.49,73.87,73.87,0,0,1-6.08,29.5c-4.84,11.37-12.54,22.43-24.21,34.8-10.46,11.09-23,22-36.2,33.58l-.12.1c-11.79,10.31-24,21-36.31,33A5.39,5.39,0,0,1,124.61,187.42ZM74,10.84c-22.91,0-42.2,16.71-44.87,38.86a42.68,42.68,0,0,0-.33,5.19A63.27,63.27,0,0,0,34,80.14c4.32,10.17,11.35,20.21,22.1,31.62,10.11,10.72,22.41,21.47,35.43,32.84l.17.16c10.69,9.34,21.7,19,32.9,29.7,11.23-10.75,22.27-20.4,33-29.75l.12-.11c13-11.38,25.34-22.14,35.45-32.85,10.76-11.4,17.79-21.45,22.12-31.61a63.14,63.14,0,0,0,5.21-25.25,44.73,44.73,0,0,0-.32-5.19c-2.67-22.15-22-38.86-44.93-38.86-23.25,0-36.29,8.59-48.1,31.69a5.42,5.42,0,0,1-9.65,0C104.75,17.65,95.41,10.84,74,10.84Z"/><path class="cls-1" d="M124.64,144a5.41,5.41,0,0,1-5.23-4L105.77,88.84,103,122.75a5.43,5.43,0,0,1-5.4,5H5.42a5.42,5.42,0,1,1,0-10.83H92.56l5-60.07a5.42,5.42,0,0,1,10.63-.94l16.27,61,11.17-44.67a5.42,5.42,0,0,1,10.4-.4l15,45.06h77.39a5.42,5.42,0,1,1,0,10.84H157.16A5.41,5.41,0,0,1,152,124L141.64,92.9l-11.74,47a5.42,5.42,0,0,1-5.21,4.1Z"/><path class="cls-2" d="M170.79,24.92a3,3,0,1,0,0,5.92,26,26,0,0,1,26,26,3,3,0,0,0,5.93,0A31.9,31.9,0,0,0,170.79,24.92Z"/></g></g></svg>