<svg xmlns="http://www.w3.org/2000/svg" viewBox="0 0 192.91 192.96"><defs><style>.cls-1{fill:none;stroke:#5bffcd;stroke-miterlimit:10;stroke-width:5px;}</style></defs><title>Health 5</title><g id="Layer_2" data-name="Layer 2"><g id="Capa_1" data-name="Capa 1"><path class="cls-1" d="M96.46,190.46a94,94,0,1,1,94-94A94.06,94.06,0,0,1,96.46,190.46Zm0-183.15A89.17,89.17,0,1,0,185.6,96.5,89.27,89.27,0,0,0,96.46,7.31ZM112.19,157.1H80.76a7.21,7.21,0,0,1-7.22-7.22V119.41H43.08a7.2,7.2,0,0,1-7.22-7.22V80.76a7.21,7.21,0,0,1,7.22-7.22H73.54V43.08a7.21,7.21,0,0,1,7.22-7.22h31.43a7.2,7.2,0,0,1,7.22,7.22V73.54h30.47a7.21,7.21,0,0,1,7.22,7.22v31.43a7.2,7.2,0,0,1-7.22,7.22H119.41v30.47A7.24,7.24,0,0,1,112.19,157.1Zm0,0H80.76a7.21,7.21,0,0,1-7.22-7.22V119.41H43.08a7.2,7.2,0,0,1-7.22-7.22V80.76a7.21,7.21,0,0,1,7.22-7.22H73.54V43.08a7.21,7.21,0,0,1,7.22-7.22h31.43a7.2,7.2,0,0,1,7.22,7.22V73.54h30.47a7.21,7.21,0,0,1,7.22,7.22v31.43a7.2,7.2,0,0,1-7.22,7.22H119.41v30.47A7.24,7.24,0,0,1,112.19,157.1ZM43.08,78.31a2.39,2.39,0,0,0-2.41,2.41v31.43a2.38,2.38,0,0,0,2.41,2.4H78.36v35.28a2.38,2.38,0,0,0,2.4,2.41h31.43a2.39,2.39,0,0,0,2.41-2.41V114.55h35.28a2.38,2.38,0,0,0,2.41-2.4V80.72a2.39,2.39,0,0,0-2.41-2.41H114.6V43a2.39,2.39,0,0,0-2.41-2.41H80.76A2.38,2.38,0,0,0,78.36,43V78.31Z"/></g></g></svg>